Coordinates
version=1
nRows=32
nColumns=12
inDegrees=yes

Units are S.I. units (second, meters, Newtons, ...)
Angles are in degrees

endheader
time	SC_y	SC_z	SC_x	AC_y	AC_z	AC_x	GH_y	GH_z	GH_yy	EL_x	PS_y
       0.0              -49.37           29.4          63.83          38.84         -17.57         -15.69          18.86          27.99          17.75          41.92          121.8
   0.04893              -49.37           29.4          63.82          38.84         -17.57         -15.69          18.88           28.0          17.75          41.93          121.8
   0.09785              -49.37           29.4          63.82          38.84         -17.57         -15.68           18.9          28.01          17.74          41.94          121.8
    0.1468              -49.37           29.4          63.81          38.84         -17.57         -15.68          18.92          28.02          17.72          41.95          121.8
    0.1957              -49.37           29.4           63.8          38.84         -17.56         -15.67          18.94          28.03          17.71          41.97          121.8
    0.2446              -49.37          29.39           63.8          38.84         -17.56         -15.67          18.97          28.04           17.7          41.98          121.8
    0.2936              -49.37          29.39          63.79          38.84         -17.56         -15.66           19.0          28.05          17.69          41.99          121.8
    0.3425              -49.37          29.39          63.78          38.83         -17.56         -15.66          19.02          28.06          17.67          42.01          121.8
    0.3914              -49.37          29.39          63.78          38.83         -17.56         -15.65          19.06          28.08          17.66          42.02          121.7
    0.4403              -49.37          29.39          63.77          38.83         -17.55         -15.64          19.09          28.09          17.64          42.04          121.7
    0.4893              -49.38          29.38          63.76          38.83         -17.55         -15.63          19.13          28.11          17.63          42.06          121.7
    0.5382              -49.38          29.38          63.75          38.83         -17.55         -15.63          19.16          28.13          17.61          42.08          121.7
    0.5871              -49.38          29.38          63.74          38.83         -17.55         -15.62          19.21          28.15          17.59           42.1          121.7
     0.636              -49.38          29.37          63.73          38.83         -17.54         -15.61          19.25          28.17          17.57          42.12          121.6
     0.685              -49.38          29.37          63.72          38.82         -17.54          -15.6           19.3          28.19          17.54          42.15          121.6
    0.7339              -49.38          29.37           63.7          38.82         -17.54         -15.58          19.35          28.21          17.52          42.18          121.6
    0.7828              -49.38          29.36          63.69          38.82         -17.53         -15.57          19.41          28.24          17.49          42.21          121.6
    0.8317              -49.38          29.36          63.67          38.82         -17.53         -15.56          19.47          28.26          17.46          42.24          121.5
    0.8807              -49.38          29.36          63.66          38.82         -17.52         -15.54          19.54          28.29          17.43          42.27          121.5
    0.9296              -49.38          29.35          63.64          38.81         -17.52         -15.53          19.62          28.33          17.39          42.31          121.5
    0.9785              -49.38          29.34          63.62          38.81         -17.51         -15.51           19.7          28.36          17.35          42.35          121.4
     1.027              -49.38          29.34          63.59          38.81         -17.51         -15.49          19.79          28.41          17.31           42.4          121.4
     1.076              -49.39          29.33          63.57           38.8          -17.5         -15.47          19.89          28.45          17.26          42.45          121.3
     1.125              -49.39          29.32          63.54           38.8         -17.49         -15.44           20.0           28.5          17.21          42.51          121.3
     1.174              -49.39          29.32          63.51           38.8         -17.49         -15.41          20.12          28.55          17.15          42.57          121.2
     1.223              -49.39          29.31          63.48          38.79         -17.48         -15.38          20.26          28.62          17.08          42.64          121.2
     1.272              -49.39           29.3          63.44          38.78         -17.47         -15.35          20.42          28.68          17.01          42.72          121.1
     1.321               -49.4          29.28           63.4          38.78         -17.46         -15.31          20.59          28.76          16.93          42.81          121.0
      1.37               -49.4          29.27          63.35          38.77         -17.44         -15.27          20.78          28.85          16.83          42.91          120.9
     1.419               -49.4          29.26          63.29          38.76         -17.43         -15.22          21.01          28.95          16.73          43.03          120.8
     1.468              -49.41          29.24          63.23          38.75         -17.41         -15.16          21.26          29.06          16.61          43.16          120.7
     1.517              -49.41          29.22          63.16          38.74         -17.39          -15.1          21.55          29.19          16.47          43.31          120.6
